<?xml version="1.0" standalone="no"?>
<!DOCTYPE svg PUBLIC "-//W3C//DTD SVG 20010904//EN"
 "http://www.w3.org/TR/2001/REC-SVG-20010904/DTD/svg10.dtd">
<svg version="1.0" xmlns="http://www.w3.org/2000/svg"
 width="512.000000pt" height="512.000000pt" viewBox="0 0 512.000000 512.000000"
 preserveAspectRatio="xMidYMid meet">
<metadata>
Created by potrace 1.14, written by Peter Selinger 2001-2017
</metadata>
<g transform="translate(0.000000,512.000000) scale(0.100000,-0.100000)"
fill="#000000" stroke="none">
<path d="M3 3718 c3 -1533 0 -1447 62 -1724 106 -471 363 -927 712 -1264 697
-674 1686 -901 2598 -596 394 132 729 346 1030 658 409 423 650 954 705 1553
6 68 10 620 10 1443 l0 1332 -2560 0 -2561 0 4 -1402z m2537 1055 c0 -110 -18
-529 -30 -713 -66 -975 -171 -1607 -366 -2189 -225 -672 -455 -1014 -758
-1132 -39 -15 -91 -30 -116 -34 -44 -6 -47 -5 -136 64 -462 355 -779 922 -854
1526 -17 135 -15 420 4 560 98 708 495 1308 1112 1679 314 188 725 311 1052
315 l92 1 0 -77z m317 62 c497 -66 940 -279 1298 -627 204 -197 345 -389 469
-640 315 -632 315 -1384 0 -2016 -156 -315 -384 -595 -648 -796 l-78 -60 -53
11 c-293 62 -534 334 -738 834 -208 509 -350 1113 -426 1809 -46 419 -91 1110
-91 1392 l0 108 74 0 c41 0 128 -7 193 -15z m903 -4231 c-84 -53 -324 -169
-424 -204 -449 -156 -903 -176 -1351 -59 -157 41 -344 112 -460 175 -93 50
-205 116 -205 120 0 2 561 4 1248 4 l1247 0 -55 -36z"/>
</g>
</svg>
